@startuml
left to right direction
package "taskt.Core.Automation.Commands"{
abstract class "AExcelColumnRangeSetCommands"{
+{abstract} v_WhenItemNotEnough : String <<get>> <<set>> <<abstract>> 
}
}

package "taskt.Core.Automation.Commands"{
abstract class "AExcelColumnRangeCommands"{
+v_ColumnType : String <<get>> <<set>> 
+v_ColumnIndex : String <<get>> <<set>> 
+v_RowStart : String <<get>> <<set>> 
+v_RowEnd : String <<get>> <<set>> 
+v_ValueType : String <<get>> <<set>> 
}
}

package "taskt.Core.Automation.Commands"{
Interface "IExcelColumnRangeSetProperties" {
}
}

package "taskt.Core.Automation.Commands"{
abstract class "AExcelInstanceCommands"{
+v_InstanceName : String <<get>> <<set>> 
}
}

package "taskt.Core.Automation.Commands"{
Interface "IExcelColumnRangeProperties" {
+{abstract} v_ColumnIndex : String <<get>> <<set>> <<abstract>> 
+{abstract} v_RowStart : String <<get>> <<set>> <<abstract>> 
+{abstract} v_RowEnd : String <<get>> <<set>> <<abstract>> 
}
}

package "taskt.Core.Automation.Commands"{
Interface "IExcelRangeSetProperties" {
+{abstract} v_WhenItemNotEnough : String <<get>> <<set>> <<abstract>> 
}
}

package "taskt.Core.Automation.Commands"{
abstract class "ScriptCommand"{
+RunCommand() : void 
+RunCommand() : void 
+GetDisplayValue() : String
+Render() : List
+Render() : List
+AfterShown() : void 
+Refresh() : void 
+BeforeValidate() : void 
+IsValidate() : Boolean
+ConvertToIntermediate() : void 
+ConvertToIntermediate() : void 
+ConvertToRaw() : void 
+ConvertToRaw() : void 
+Clone() : ScriptCommand
+CheckMatched() : Boolean
+Replace() : Boolean
+AddInstance() : void 
+RemoveInstance() : void 
+CommandID : String <<get>> <<set>> 
+CommandName : String <<get>> <<set>> 
+IsCommented : Boolean <<get>> <<set>> 
+SelectionName : String <<get>> <<set>> 
+DefaultPause : Int32 <<get>> <<set>> 
+LineNumber : Int32 <<get>> <<set>> 
+PauseBeforeExeucution : Boolean <<get>> <<set>> 
+DisplayForeColor : Color <<get>> <<set>> 
+v_Comment : String <<get>> <<set>> 
+CommandEnabled : Boolean <<get>> <<set>> 
+IsValid : Boolean <<get>> <<protected set>>
+IsWarning : Boolean <<get>> <<protected set>>
+validationResult : String <<get>> <<protected set>>
+IsMatched : Boolean <<get>> <<protected set>>
+IsDontSavedCommand : Boolean <<get>> <<set>> 
+IsNewInsertedCommand : Boolean <<get>> <<set>> 
+CustomRendering : Boolean <<get>> <<set>> 
+ControlsList : Dictionary <<get>> 
+RenderedControls : List<System.Windows.Forms.Control>
#_ControlsList : Dictionary<string, System.Windows.Forms.Control>
}
}

package "taskt.Core.Automation.Commands"{
Interface "IExcelInstanceProperties" {
+{abstract} v_InstanceName : String <<get>> <<set>> <<abstract>> 
}
}

package "taskt.Core.Automation.Commands"{
Interface "IExcelRCRangeProperties" {
+{abstract} v_ColumnType : String <<get>> <<set>> <<abstract>> 
}
}

package "taskt.Core.Automation.Commands"{
Interface "IExpandableProperties" {
}
}

package "taskt.Core.Automation.Commands"{
Interface "IUIParameterProperties" {
+{abstract} ControlsList : Dictionary <<get>> <<abstract>> 
}
}

package "taskt.Core.Automation.Commands"{
Interface "ICommandIDProperties" {
+{abstract} CommandID : String <<get>> <<set>> <<abstract>> 
}
}

package "taskt.Core.Automation.Commands"{
Interface "IExcelRCValueTypeProperties" {
}
}

package "taskt.Core.Automation.Commands"{
Interface "IExcelValueTypeProperties" {
+{abstract} v_ValueType : String <<get>> <<set>> <<abstract>> 
}
}

taskt.Core.Automation.Commands.AExcelColumnRangeSetCommands --|> taskt.Core.Automation.Commands.AExcelColumnRangeCommands
taskt.Core.Automation.Commands.AExcelColumnRangeSetCommands ..|> taskt.Core.Automation.Commands.IExcelColumnRangeSetProperties
taskt.Core.Automation.Commands.AExcelColumnRangeCommands --|> taskt.Core.Automation.Commands.AExcelInstanceCommands
taskt.Core.Automation.Commands.AExcelColumnRangeCommands ..|> taskt.Core.Automation.Commands.IExcelColumnRangeProperties
taskt.Core.Automation.Commands.IExcelColumnRangeSetProperties --|> taskt.Core.Automation.Commands.IExcelColumnRangeProperties
taskt.Core.Automation.Commands.IExcelColumnRangeSetProperties --|> taskt.Core.Automation.Commands.IExcelRangeSetProperties
taskt.Core.Automation.Commands.AExcelInstanceCommands --|> taskt.Core.Automation.Commands.ScriptCommand
taskt.Core.Automation.Commands.AExcelInstanceCommands ..|> taskt.Core.Automation.Commands.IExcelInstanceProperties
taskt.Core.Automation.Commands.IExcelColumnRangeProperties --|> taskt.Core.Automation.Commands.IExcelRCRangeProperties
taskt.Core.Automation.Commands.IExcelRangeSetProperties --|> taskt.Core.Automation.Commands.IExpandableProperties
taskt.Core.Automation.Commands.ScriptCommand ..|> taskt.Core.Automation.Commands.IUIParameterProperties
taskt.Core.Automation.Commands.ScriptCommand ..|> taskt.Core.Automation.Commands.ICommandIDProperties
taskt.Core.Automation.Commands.IExcelInstanceProperties --|> taskt.Core.Automation.Commands.IExpandableProperties
taskt.Core.Automation.Commands.IExcelRCRangeProperties --|> taskt.Core.Automation.Commands.IExcelInstanceProperties
taskt.Core.Automation.Commands.IExcelRCRangeProperties --|> taskt.Core.Automation.Commands.IExcelRCValueTypeProperties
taskt.Core.Automation.Commands.IExcelRCValueTypeProperties --|> taskt.Core.Automation.Commands.IExcelValueTypeProperties
taskt.Core.Automation.Commands.IExcelValueTypeProperties --|> taskt.Core.Automation.Commands.IExpandableProperties
@enduml