@startuml
left to right direction
package "taskt.Core.Automation.Commands"{
class "ExcelSetRowValuesFromDictionaryCommand" <<sealed>> {
+RunCommand() : void 
+v_DictionaryVariable : String <<get>> <<set>> 
+v_WhenItemNotEnough : String <<get>> <<set>> 
}
}

package "taskt.Core.Automation.Commands"{
abstract class "AExcelRowRangeSetCommands"{
+{abstract} v_WhenItemNotEnough : String <<get>> <<set>> <<abstract>> 
}
}

package "taskt.Core.Automation.Commands"{
Interface "ICanHandleDictionary" {
}
}

package "taskt.Core.Automation.Commands"{
abstract class "AExcelRowRangeCommands"{
+v_RowIndex : String <<get>> <<set>> 
+v_ColumnType : String <<get>> <<set>> 
+v_ColumnStart : String <<get>> <<set>> 
+v_ColumnEnd : String <<get>> <<set>> 
+v_ValueType : String <<get>> <<set>> 
}
}

package "taskt.Core.Automation.Commands"{
Interface "IExcelRowRangeSetProperties" {
}
}

package "taskt.Core.Automation.Commands"{
Interface "IExpandableProperties" {
}
}

package "taskt.Core.Automation.Commands"{
abstract class "AExcelInstanceCommands"{
+v_InstanceName : String <<get>> <<set>> 
}
}

package "taskt.Core.Automation.Commands"{
Interface "IExcelRowRangeProperties" {
+{abstract} v_RowIndex : String <<get>> <<set>> <<abstract>> 
+{abstract} v_ColumnStart : String <<get>> <<set>> <<abstract>> 
+{abstract} v_ColumnEnd : String <<get>> <<set>> <<abstract>> 
}
}

package "taskt.Core.Automation.Commands"{
Interface "IExcelRangeSetProperties" {
+{abstract} v_WhenItemNotEnough : String <<get>> <<set>> <<abstract>> 
}
}

package "taskt.Core.Automation.Commands"{
abstract class "ScriptCommand"{
+RunCommand() : void 
+RunCommand() : void 
+GetDisplayValue() : String
+Render() : List
+Render() : List
+AfterShown() : void 
+Refresh() : void 
+BeforeValidate() : void 
+IsValidate() : Boolean
+ConvertToIntermediate() : void 
+ConvertToIntermediate() : void 
+ConvertToRaw() : void 
+ConvertToRaw() : void 
+Clone() : ScriptCommand
+CheckMatched() : Boolean
+Replace() : Boolean
+AddInstance() : void 
+RemoveInstance() : void 
+CommandID : String <<get>> <<set>> 
+CommandName : String <<get>> <<set>> 
+IsCommented : Boolean <<get>> <<set>> 
+SelectionName : String <<get>> <<set>> 
+DefaultPause : Int32 <<get>> <<set>> 
+LineNumber : Int32 <<get>> <<set>> 
+PauseBeforeExeucution : Boolean <<get>> <<set>> 
+DisplayForeColor : Color <<get>> <<set>> 
+v_Comment : String <<get>> <<set>> 
+CommandEnabled : Boolean <<get>> <<set>> 
+IsValid : Boolean <<get>> <<protected set>>
+IsWarning : Boolean <<get>> <<protected set>>
+validationResult : String <<get>> <<protected set>>
+IsMatched : Boolean <<get>> <<protected set>>
+IsDontSavedCommand : Boolean <<get>> <<set>> 
+IsNewInsertedCommand : Boolean <<get>> <<set>> 
+CustomRendering : Boolean <<get>> <<set>> 
+ControlsList : Dictionary <<get>> 
+RenderedControls : List<System.Windows.Forms.Control>
#_ControlsList : Dictionary<string, System.Windows.Forms.Control>
}
}

package "taskt.Core.Automation.Commands"{
Interface "IExcelInstanceProperties" {
+{abstract} v_InstanceName : String <<get>> <<set>> <<abstract>> 
}
}

package "taskt.Core.Automation.Commands"{
Interface "IExcelRCRangeProperties" {
+{abstract} v_ColumnType : String <<get>> <<set>> <<abstract>> 
}
}

package "taskt.Core.Automation.Commands"{
Interface "IUIParameterProperties" {
+{abstract} ControlsList : Dictionary <<get>> <<abstract>> 
}
}

package "taskt.Core.Automation.Commands"{
Interface "ICommandIDProperties" {
+{abstract} CommandID : String <<get>> <<set>> <<abstract>> 
}
}

package "taskt.Core.Automation.Commands"{
Interface "IExcelRCValueTypeProperties" {
}
}

package "taskt.Core.Automation.Commands"{
Interface "IExcelValueTypeProperties" {
+{abstract} v_ValueType : String <<get>> <<set>> <<abstract>> 
}
}

taskt.Core.Automation.Commands.ExcelSetRowValuesFromDictionaryCommand --|> taskt.Core.Automation.Commands.AExcelRowRangeSetCommands
taskt.Core.Automation.Commands.ExcelSetRowValuesFromDictionaryCommand ..|> taskt.Core.Automation.Commands.ICanHandleDictionary
taskt.Core.Automation.Commands.AExcelRowRangeSetCommands --|> taskt.Core.Automation.Commands.AExcelRowRangeCommands
taskt.Core.Automation.Commands.AExcelRowRangeSetCommands ..|> taskt.Core.Automation.Commands.IExcelRowRangeSetProperties
taskt.Core.Automation.Commands.ICanHandleDictionary --|> taskt.Core.Automation.Commands.IExpandableProperties
taskt.Core.Automation.Commands.AExcelRowRangeCommands --|> taskt.Core.Automation.Commands.AExcelInstanceCommands
taskt.Core.Automation.Commands.AExcelRowRangeCommands ..|> taskt.Core.Automation.Commands.IExcelRowRangeProperties
taskt.Core.Automation.Commands.IExcelRowRangeSetProperties --|> taskt.Core.Automation.Commands.IExcelRowRangeProperties
taskt.Core.Automation.Commands.IExcelRowRangeSetProperties --|> taskt.Core.Automation.Commands.IExcelRangeSetProperties
taskt.Core.Automation.Commands.AExcelInstanceCommands --|> taskt.Core.Automation.Commands.ScriptCommand
taskt.Core.Automation.Commands.AExcelInstanceCommands ..|> taskt.Core.Automation.Commands.IExcelInstanceProperties
taskt.Core.Automation.Commands.IExcelRowRangeProperties --|> taskt.Core.Automation.Commands.IExcelRCRangeProperties
taskt.Core.Automation.Commands.IExcelRangeSetProperties --|> taskt.Core.Automation.Commands.IExpandableProperties
taskt.Core.Automation.Commands.ScriptCommand ..|> taskt.Core.Automation.Commands.IUIParameterProperties
taskt.Core.Automation.Commands.ScriptCommand ..|> taskt.Core.Automation.Commands.ICommandIDProperties
taskt.Core.Automation.Commands.IExcelInstanceProperties --|> taskt.Core.Automation.Commands.IExpandableProperties
taskt.Core.Automation.Commands.IExcelRCRangeProperties --|> taskt.Core.Automation.Commands.IExcelInstanceProperties
taskt.Core.Automation.Commands.IExcelRCRangeProperties --|> taskt.Core.Automation.Commands.IExcelRCValueTypeProperties
taskt.Core.Automation.Commands.IExcelRCValueTypeProperties --|> taskt.Core.Automation.Commands.IExcelValueTypeProperties
taskt.Core.Automation.Commands.IExcelValueTypeProperties --|> taskt.Core.Automation.Commands.IExpandableProperties
@enduml