@startuml
left to right direction
package "taskt.Core.Automation.Commands"{
class "ResizeWindowByWindowHandleCommand" <<sealed>> {
+RunCommand() : void 
+v_Width : String <<get>> <<set>> 
+v_Height : String <<get>> <<set>> 
+v_WhenWindowIsMinimized : String <<get>> <<set>> 
+v_WhenWindowIsMaximized : String <<get>> <<set>> 
}
}

package "taskt.Core.Automation.Commands"{
abstract class "AWindowHandleActionCommands"{
+v_WaitTimeBetweenFindAndAction : String <<get>> <<set>> 
+v_ActivateBeforeAction : String <<get>> <<set>> 
}
}

package "taskt.Core.Automation.Commands"{
Interface "IWindowResizeProperties" {
+{abstract} v_WhenWindowIsMaximized : String <<get>> <<set>> <<abstract>> 
}
}

package "taskt.Core.Automation.Commands"{
abstract class "AWindowHandleCommands"{
+v_WindowHandle : String <<get>> <<set>> 
+v_WaitTimeForWindow : String <<get>> <<set>> 
+v_WindowNameResult : String <<get>> <<set>> 
}
}

package "taskt.Core.Automation.Commands"{
Interface "IWindowHandleActionPropeties" {
}
}

package "taskt.Core.Automation.Commands"{
Interface "IWindowSizeProperties" {
+{abstract} v_WhenWindowIsMinimized : String <<get>> <<set>> <<abstract>> 
}
}

package "taskt.Core.Automation.Commands"{
abstract class "ScriptCommand"{
+RunCommand() : void 
+RunCommand() : void 
+GetDisplayValue() : String
+Render() : List
+Render() : List
+AfterShown() : void 
+Refresh() : void 
+BeforeValidate() : void 
+IsValidate() : Boolean
+ConvertToIntermediate() : void 
+ConvertToIntermediate() : void 
+ConvertToRaw() : void 
+ConvertToRaw() : void 
+Clone() : ScriptCommand
+CheckMatched() : Boolean
+Replace() : Boolean
+AddInstance() : void 
+RemoveInstance() : void 
+CommandID : String <<get>> <<set>> 
+CommandName : String <<get>> <<set>> 
+IsCommented : Boolean <<get>> <<set>> 
+SelectionName : String <<get>> <<set>> 
+DefaultPause : Int32 <<get>> <<set>> 
+LineNumber : Int32 <<get>> <<set>> 
+PauseBeforeExeucution : Boolean <<get>> <<set>> 
+DisplayForeColor : Color <<get>> <<set>> 
+v_Comment : String <<get>> <<set>> 
+CommandEnabled : Boolean <<get>> <<set>> 
+IsValid : Boolean <<get>> <<protected set>>
+IsWarning : Boolean <<get>> <<protected set>>
+validationResult : String <<get>> <<protected set>>
+IsMatched : Boolean <<get>> <<protected set>>
+IsDontSavedCommand : Boolean <<get>> <<set>> 
+IsNewInsertedCommand : Boolean <<get>> <<set>> 
+CustomRendering : Boolean <<get>> <<set>> 
+ControlsList : Dictionary <<get>> 
+RenderedControls : List<System.Windows.Forms.Control>
#_ControlsList : Dictionary<string, System.Windows.Forms.Control>
}
}

package "taskt.Core.Automation.Commands"{
Interface "IWindowHandleProperties" {
+{abstract} v_WindowHandle : String <<get>> <<set>> <<abstract>> 
+{abstract} v_WaitTimeForWindow : String <<get>> <<set>> <<abstract>> 
}
}

package "taskt.Core.Automation.Commands"{
Interface "IWindowWaitTimeBetweenFindAndActionProperties" {
+{abstract} v_WaitTimeBetweenFindAndAction : String <<get>> <<set>> <<abstract>> 
}
}

package "taskt.Core.Automation.Commands"{
Interface "IWindowActivateProperties" {
+{abstract} v_ActivateBeforeAction : String <<get>> <<set>> <<abstract>> 
}
}

package "taskt.Core.Automation.Commands"{
Interface "ISizeProperties" {
+{abstract} v_Width : String <<get>> <<set>> <<abstract>> 
+{abstract} v_Height : String <<get>> <<set>> <<abstract>> 
}
}

package "taskt.Core.Automation.Commands"{
Interface "IWindowRECTProperties" {
}
}

package "taskt.Core.Automation.Commands"{
Interface "IUIParameterProperties" {
+{abstract} ControlsList : Dictionary <<get>> <<abstract>> 
}
}

package "taskt.Core.Automation.Commands"{
Interface "ICommandIDProperties" {
+{abstract} CommandID : String <<get>> <<set>> <<abstract>> 
}
}

package "taskt.Core.Automation.Commands.WindowGroup"{
Interface "IFromWindowHandleResultsProperties" {
+{abstract} v_WindowNameResult : String <<get>> <<set>> <<abstract>> 
}
}

package "taskt.Core.Automation.Commands"{
Interface "ICanHandleWindowHandle" {
}
}

package "taskt.Core.Automation.Commands"{
Interface "IExpandableProperties" {
}
}

taskt.Core.Automation.Commands.ResizeWindowByWindowHandleCommand --|> taskt.Core.Automation.Commands.AWindowHandleActionCommands
taskt.Core.Automation.Commands.ResizeWindowByWindowHandleCommand ..|> taskt.Core.Automation.Commands.IWindowResizeProperties
taskt.Core.Automation.Commands.AWindowHandleActionCommands --|> taskt.Core.Automation.Commands.AWindowHandleCommands
taskt.Core.Automation.Commands.AWindowHandleActionCommands ..|> taskt.Core.Automation.Commands.IWindowHandleActionPropeties
taskt.Core.Automation.Commands.IWindowResizeProperties --|> taskt.Core.Automation.Commands.IWindowSizeProperties
taskt.Core.Automation.Commands.AWindowHandleCommands --|> taskt.Core.Automation.Commands.ScriptCommand
taskt.Core.Automation.Commands.AWindowHandleCommands ..|> taskt.Core.Automation.Commands.IWindowHandleProperties
taskt.Core.Automation.Commands.IWindowHandleActionPropeties --|> taskt.Core.Automation.Commands.IWindowHandleProperties
taskt.Core.Automation.Commands.IWindowHandleActionPropeties --|> taskt.Core.Automation.Commands.IWindowWaitTimeBetweenFindAndActionProperties
taskt.Core.Automation.Commands.IWindowHandleActionPropeties --|> taskt.Core.Automation.Commands.IWindowActivateProperties
taskt.Core.Automation.Commands.IWindowSizeProperties --|> taskt.Core.Automation.Commands.ISizeProperties
taskt.Core.Automation.Commands.IWindowSizeProperties --|> taskt.Core.Automation.Commands.IWindowRECTProperties
taskt.Core.Automation.Commands.ScriptCommand ..|> taskt.Core.Automation.Commands.IUIParameterProperties
taskt.Core.Automation.Commands.ScriptCommand ..|> taskt.Core.Automation.Commands.ICommandIDProperties
taskt.Core.Automation.Commands.IWindowHandleProperties --|> taskt.Core.Automation.Commands.WindowGroup.IFromWindowHandleResultsProperties
taskt.Core.Automation.Commands.IWindowHandleProperties --|> taskt.Core.Automation.Commands.ICanHandleWindowHandle
taskt.Core.Automation.Commands.IWindowWaitTimeBetweenFindAndActionProperties --|> taskt.Core.Automation.Commands.IExpandableProperties
taskt.Core.Automation.Commands.ISizeProperties --|> taskt.Core.Automation.Commands.IExpandableProperties
taskt.Core.Automation.Commands.WindowGroup.IFromWindowHandleResultsProperties --|> taskt.Core.Automation.Commands.IExpandableProperties
taskt.Core.Automation.Commands.ICanHandleWindowHandle --|> taskt.Core.Automation.Commands.IExpandableProperties
@enduml