@startuml
left to right direction
package "taskt.Core.Automation.Commands"{
abstract class "AFileCopySameRenameFileCommands"{
#CreateActionFunc() : Func
#cmbExtensionOption_SelectionChange() : void 
+v_NewFileName : String <<get>> <<set>> 
+v_ExtensionOption : String <<get>> <<set>> 
+v_NewExtension : String <<get>> <<set>> 
+v_WhenFileNameSame : String <<get>> <<set>> 
+v_WhenNewFileExists : String <<get>> <<set>> 
}
}

package "taskt.Core.Automation.Commands"{
abstract class "AFileExistsFilePathBeforeAfterResultCommands"{
+v_BeforeFilePathResult : String <<get>> <<set>> 
+v_AfterFilePathResult : String <<get>> <<set>> 
}
}

package "taskt.Core.Automation.Commands"{
Interface "ICanHandleFileName" {
}
}

package "taskt.Core.Automation.Commands"{
abstract class "AFileExistsFilePathCommands"{
+v_WaitTimeForFile : String <<get>> <<set>> 
}
}

package "taskt.Core.Automation.Commands"{
Interface "IFileExistsFilePathBeforeAfterPathResultProperties" {
+{abstract} v_BeforeFilePathResult : String <<get>> <<set>> <<abstract>> 
+{abstract} v_AfterFilePathResult : String <<get>> <<set>> <<abstract>> 
}
}

package "taskt.Core.Automation.Commands"{
Interface "ICanHandleFileOrFolderName" {
}
}

package "taskt.Core.Automation.Commands"{
abstract class "AFileFilePathCommands"{
+v_TargetFilePath : String <<get>> <<set>> 
}
}

package "taskt.Core.Automation.Commands"{
Interface "IFileExistsFilePathProperties" {
+{abstract} v_WaitTimeForFile : String <<get>> <<set>> <<abstract>> 
}
}

package "taskt.Core.Automation.Commands"{
Interface "IExpandableProperties" {
}
}

package "taskt.Core.Automation.Commands"{
abstract class "ScriptCommand"{
+RunCommand() : void 
+RunCommand() : void 
+GetDisplayValue() : String
+Render() : List
+Render() : List
+AfterShown() : void 
+Refresh() : void 
+BeforeValidate() : void 
+IsValidate() : Boolean
+ConvertToIntermediate() : void 
+ConvertToIntermediate() : void 
+ConvertToRaw() : void 
+ConvertToRaw() : void 
+Clone() : ScriptCommand
+CheckMatched() : Boolean
+Replace() : Boolean
+AddInstance() : void 
+RemoveInstance() : void 
+CommandID : String <<get>> <<set>> 
+CommandName : String <<get>> <<set>> 
+IsCommented : Boolean <<get>> <<set>> 
+SelectionName : String <<get>> <<set>> 
+DefaultPause : Int32 <<get>> <<set>> 
+LineNumber : Int32 <<get>> <<set>> 
+PauseBeforeExeucution : Boolean <<get>> <<set>> 
+DisplayForeColor : Color <<get>> <<set>> 
+v_Comment : String <<get>> <<set>> 
+CommandEnabled : Boolean <<get>> <<set>> 
+IsValid : Boolean <<get>> <<protected set>>
+IsWarning : Boolean <<get>> <<protected set>>
+validationResult : String <<get>> <<protected set>>
+IsMatched : Boolean <<get>> <<protected set>>
+IsDontSavedCommand : Boolean <<get>> <<set>> 
+IsNewInsertedCommand : Boolean <<get>> <<set>> 
+CustomRendering : Boolean <<get>> <<set>> 
+ControlsList : Dictionary <<get>> 
+RenderedControls : List<System.Windows.Forms.Control>
#_ControlsList : Dictionary<string, System.Windows.Forms.Control>
}
}

package "taskt.Core.Automation.Commands"{
Interface "IFilePathProperties" {
+{abstract} v_TargetFilePath : String <<get>> <<set>> <<abstract>> 
}
}

package "taskt.Core.Automation.Commands"{
Interface "IUIParameterProperties" {
+{abstract} ControlsList : Dictionary <<get>> <<abstract>> 
}
}

package "taskt.Core.Automation.Commands"{
Interface "ICommandIDProperties" {
+{abstract} CommandID : String <<get>> <<set>> <<abstract>> 
}
}

package "taskt.Core.Automation.Commands"{
Interface "ICanHandleFilePath" {
}
}

package "taskt.Core.Automation.Commands"{
Interface "ICanHandleFileOrFolderPath" {
}
}

taskt.Core.Automation.Commands.AFileCopySameRenameFileCommands --|> taskt.Core.Automation.Commands.AFileExistsFilePathBeforeAfterResultCommands
taskt.Core.Automation.Commands.AFileCopySameRenameFileCommands ..|> taskt.Core.Automation.Commands.ICanHandleFileName
taskt.Core.Automation.Commands.AFileExistsFilePathBeforeAfterResultCommands --|> taskt.Core.Automation.Commands.AFileExistsFilePathCommands
taskt.Core.Automation.Commands.AFileExistsFilePathBeforeAfterResultCommands ..|> taskt.Core.Automation.Commands.IFileExistsFilePathBeforeAfterPathResultProperties
taskt.Core.Automation.Commands.ICanHandleFileName --|> taskt.Core.Automation.Commands.ICanHandleFileOrFolderName
taskt.Core.Automation.Commands.AFileExistsFilePathCommands --|> taskt.Core.Automation.Commands.AFileFilePathCommands
taskt.Core.Automation.Commands.AFileExistsFilePathCommands ..|> taskt.Core.Automation.Commands.IFileExistsFilePathProperties
taskt.Core.Automation.Commands.IFileExistsFilePathBeforeAfterPathResultProperties --|> taskt.Core.Automation.Commands.IFileExistsFilePathProperties
taskt.Core.Automation.Commands.ICanHandleFileOrFolderName --|> taskt.Core.Automation.Commands.IExpandableProperties
taskt.Core.Automation.Commands.AFileFilePathCommands --|> taskt.Core.Automation.Commands.ScriptCommand
taskt.Core.Automation.Commands.AFileFilePathCommands ..|> taskt.Core.Automation.Commands.IFilePathProperties
taskt.Core.Automation.Commands.IFileExistsFilePathProperties --|> taskt.Core.Automation.Commands.IFilePathProperties
taskt.Core.Automation.Commands.ScriptCommand ..|> taskt.Core.Automation.Commands.IUIParameterProperties
taskt.Core.Automation.Commands.ScriptCommand ..|> taskt.Core.Automation.Commands.ICommandIDProperties
taskt.Core.Automation.Commands.IFilePathProperties --|> taskt.Core.Automation.Commands.ICanHandleFilePath
taskt.Core.Automation.Commands.ICanHandleFilePath --|> taskt.Core.Automation.Commands.ICanHandleFileOrFolderPath
taskt.Core.Automation.Commands.ICanHandleFileOrFolderPath --|> taskt.Core.Automation.Commands.IExpandableProperties
@enduml