@startuml
left to right direction
package "taskt.Core.Automation.Commands"{
class "SeleniumBrowserCreateWebBrowserInstanceCommand" <<sealed>> {
+RunCommand() : void 
+AfterShown() : void 
+v_BrowserType : String <<get>> <<set>> 
+v_BrowserWindowOption : String <<get>> <<set>> 
+v_ProfileFolder : String <<get>> <<set>> 
+v_HeadlessMode : String <<get>> <<set>> 
+v_SeleniumOptions : String <<get>> <<set>> 
+v_WindowHandleResult : String <<get>> <<set>> 
+v_BrowserPath : String <<get>> <<set>> 
+v_TemporaryProfileFolder : String <<get>> <<set>> 
}
}

package "taskt.Core.Automation.Commands.WebBrowserGroup"{
abstract class "ASeleniumCreateWebDriverCommands"{
#CreateWebDriverService() : DriverService
#CreateWebDriverService() : DriverService
+v_InstanceName : String <<get>> <<set>> 
+v_BrowserType : String <<get>> <<set>> 
+v_WebDriverPath : String <<get>> <<set>> 
+v_HideTerminalWindow : String <<get>> <<set>> 
}
}

package "taskt.Core.Automation.Commands"{
Interface "ICanHandleWindowHandle" {
}
}

package "taskt.Core.Automation.Commands.WebBrowserGroup"{
abstract class "ASeleniumDoSomethingToWebDriverCommands"{
+{abstract} v_InstanceName : String <<get>> <<set>> <<abstract>> 
}
}

package "taskt.Core.Automation.Commands.WebBrowserGroup"{
Interface "ISeleniumCreateWebDriverProperties" {
+{abstract} v_BrowserType : String <<get>> <<set>> <<abstract>> 
+{abstract} v_WebDriverPath : String <<get>> <<set>> <<abstract>> 
+{abstract} v_HideTerminalWindow : String <<get>> <<set>> <<abstract>> 
}
}

package "taskt.Core.Automation.Commands"{
Interface "IExpandableProperties" {
}
}

package "taskt.Core.Automation.Commands"{
abstract class "ScriptCommand"{
+RunCommand() : void 
+RunCommand() : void 
+GetDisplayValue() : String
+Render() : List
+Render() : List
+AfterShown() : void 
+Refresh() : void 
+BeforeValidate() : void 
+IsValidate() : Boolean
+ConvertToIntermediate() : void 
+ConvertToIntermediate() : void 
+ConvertToRaw() : void 
+ConvertToRaw() : void 
+Clone() : ScriptCommand
+CheckMatched() : Boolean
+Replace() : Boolean
+AddInstance() : void 
+RemoveInstance() : void 
+CommandID : String <<get>> <<set>> 
+CommandName : String <<get>> <<set>> 
+IsCommented : Boolean <<get>> <<set>> 
+SelectionName : String <<get>> <<set>> 
+DefaultPause : Int32 <<get>> <<set>> 
+LineNumber : Int32 <<get>> <<set>> 
+PauseBeforeExeucution : Boolean <<get>> <<set>> 
+DisplayForeColor : Color <<get>> <<set>> 
+v_Comment : String <<get>> <<set>> 
+CommandEnabled : Boolean <<get>> <<set>> 
+IsValid : Boolean <<get>> <<protected set>>
+IsWarning : Boolean <<get>> <<protected set>>
+validationResult : String <<get>> <<protected set>>
+IsMatched : Boolean <<get>> <<protected set>>
+IsDontSavedCommand : Boolean <<get>> <<set>> 
+IsNewInsertedCommand : Boolean <<get>> <<set>> 
+CustomRendering : Boolean <<get>> <<set>> 
+ControlsList : Dictionary <<get>> 
+RenderedControls : List<System.Windows.Forms.Control>
#_ControlsList : Dictionary<string, System.Windows.Forms.Control>
}
}

package "taskt.Core.Automation.Commands.WebBrowserGroup"{
Interface "ISeleniumDoSomethingToWebDriverProperties" {
+{abstract} v_InstanceName : String <<get>> <<set>> <<abstract>> 
}
}

package "taskt.Core.Automation.Commands"{
Interface "IUIParameterProperties" {
+{abstract} ControlsList : Dictionary <<get>> <<abstract>> 
}
}

package "taskt.Core.Automation.Commands"{
Interface "ICommandIDProperties" {
+{abstract} CommandID : String <<get>> <<set>> <<abstract>> 
}
}

package "taskt.Core.Automation.Commands.WebBrowserGroup"{
Interface "ICanHandleWebDriver" {
}
}

taskt.Core.Automation.Commands.SeleniumBrowserCreateWebBrowserInstanceCommand --|> taskt.Core.Automation.Commands.WebBrowserGroup.ASeleniumCreateWebDriverCommands
taskt.Core.Automation.Commands.SeleniumBrowserCreateWebBrowserInstanceCommand ..|> taskt.Core.Automation.Commands.ICanHandleWindowHandle
taskt.Core.Automation.Commands.WebBrowserGroup.ASeleniumCreateWebDriverCommands --|> taskt.Core.Automation.Commands.WebBrowserGroup.ASeleniumDoSomethingToWebDriverCommands
taskt.Core.Automation.Commands.WebBrowserGroup.ASeleniumCreateWebDriverCommands ..|> taskt.Core.Automation.Commands.WebBrowserGroup.ISeleniumCreateWebDriverProperties
taskt.Core.Automation.Commands.ICanHandleWindowHandle --|> taskt.Core.Automation.Commands.IExpandableProperties
taskt.Core.Automation.Commands.WebBrowserGroup.ASeleniumDoSomethingToWebDriverCommands --|> taskt.Core.Automation.Commands.ScriptCommand
taskt.Core.Automation.Commands.WebBrowserGroup.ASeleniumDoSomethingToWebDriverCommands ..|> taskt.Core.Automation.Commands.WebBrowserGroup.ISeleniumDoSomethingToWebDriverProperties
taskt.Core.Automation.Commands.WebBrowserGroup.ISeleniumCreateWebDriverProperties --|> taskt.Core.Automation.Commands.WebBrowserGroup.ISeleniumDoSomethingToWebDriverProperties
taskt.Core.Automation.Commands.ScriptCommand ..|> taskt.Core.Automation.Commands.IUIParameterProperties
taskt.Core.Automation.Commands.ScriptCommand ..|> taskt.Core.Automation.Commands.ICommandIDProperties
taskt.Core.Automation.Commands.WebBrowserGroup.ISeleniumDoSomethingToWebDriverProperties --|> taskt.Core.Automation.Commands.WebBrowserGroup.ICanHandleWebDriver
taskt.Core.Automation.Commands.WebBrowserGroup.ISeleniumDoSomethingToWebDriverProperties --|> taskt.Core.Automation.Commands.IExpandableProperties
@enduml